<svg width="291" height="160" viewBox="0 0 291 160" fill="none" xmlns="http://www.w3.org/2000/svg">
<rect width="291" height="160" fill="white"/>
<path d="M43.667 40.2771H56.8565V46.2542H43.667V40.2771ZM55.0686 40.2771H68.2581V46.2542H55.0686V40.2771ZM66.4703 40.2771H79.6597V46.2542H66.4703V40.2771ZM77.8719 40.2771H91.0613V46.2542H77.8719V40.2771ZM89.2735 40.2771H102.463V46.2542H89.2735V40.2771ZM112.622 40.2771H120.113V46.2542H112.622V40.2771ZM118.322 40.2771H131.512V46.2542H118.322V40.2771ZM141.67 40.2771H154.86V46.2542H141.67V40.2771ZM153.072 40.2771H166.261V46.2542H153.072V40.2771ZM164.474 40.2771H171.965V46.2542H164.474V40.2771ZM182.121 40.2771H195.31V46.2542H182.121V40.2771ZM193.522 40.2771H201.014V46.2542H193.522V40.2771ZM199.223 40.2771H212.413V46.2542H199.223V40.2771ZM210.625 40.2771H218.116V46.2542H210.625V40.2771ZM216.326 40.2771H223.817V46.2542H216.326V40.2771ZM222.026 40.2771H235.216V46.2542H222.026V40.2771ZM233.428 40.2771H246.618V46.2542H233.428V40.2771Z" fill="#2B2B2B"/>
<path d="M26.0823 78.0939H29.4117V80.7504H26.0823V78.0939ZM28.616 78.0939H34.478V80.7504H28.616V78.0939ZM33.6834 78.0939H37.0128V80.7504H33.6834V78.0939ZM36.2171 78.0939H42.079V80.7504H36.2171V78.0939ZM41.2844 78.0939H47.1464V80.7504H41.2844V78.0939ZM51.6613 78.0939H54.9908V80.7504H51.6613V78.0939ZM54.195 78.0939H60.057V80.7504H54.195V78.0939ZM59.2624 78.0939H65.1244V80.7504H59.2624V78.0939ZM64.3298 78.0939H70.1918V80.7504H64.3298V78.0939ZM69.3972 78.0939H75.2592V80.7504H69.3972V78.0939ZM79.7741 78.0939H85.6361V80.7504H79.7741V78.0939ZM84.8415 78.0939H90.7035V80.7504H84.8415V78.0939ZM89.9089 78.0939H93.2383V80.7504H89.9089V78.0939ZM92.4426 78.0939H98.3045V80.7504H92.4426V78.0939ZM97.5099 78.0939H100.839V80.7504H97.5099V78.0939ZM105.353 78.0939H111.215V80.7504H105.353V78.0939ZM110.421 78.0939H113.75V80.7504H110.421V78.0939ZM112.954 78.0939H116.284V80.7504H112.954V78.0939ZM120.797 78.0939H126.659V80.7504H120.797V78.0939ZM125.865 78.0939H131.727V80.7504H125.865V78.0939ZM130.932 78.0939H136.794V80.7504H130.932V78.0939ZM136 78.0939H139.329V80.7504H136V78.0939ZM138.533 78.0939H141.863V80.7504H138.533V78.0939ZM146.376 78.0939H152.238V80.7504H146.376V78.0939ZM151.444 78.0939H157.306V80.7504H151.444V78.0939ZM156.511 78.0939H162.373V80.7504H156.511V78.0939ZM161.579 78.0939H167.441V80.7504H161.579V78.0939ZM166.646 78.0939H172.508V80.7504H166.646V78.0939ZM171.713 78.0939H177.575V80.7504H171.713V78.0939ZM176.781 78.0939H180.11V80.7504H176.781V78.0939ZM179.315 78.0939H185.176V80.7504H179.315V78.0939ZM184.382 78.0939H187.711V80.7504H184.382V78.0939ZM186.916 78.0939H192.778V80.7504H186.916V78.0939ZM191.983 78.0939H195.312V80.7504H191.983V78.0939ZM199.826 78.0939H205.688V80.7504H199.826V78.0939ZM204.894 78.0939H210.756V80.7504H204.894V78.0939ZM209.961 78.0939H213.29V80.7504H209.961V78.0939ZM212.495 78.0939H218.357V80.7504H212.495V78.0939ZM217.562 78.0939H220.892V80.7504H217.562V78.0939ZM220.096 78.0939H225.958V80.7504H220.096V78.0939ZM225.163 78.0939H231.025V80.7504H225.163V78.0939ZM230.23 78.0939H233.56V80.7504H230.23V78.0939ZM232.764 78.0939H238.626V80.7504H232.764V78.0939ZM237.832 78.0939H243.694V80.7504H237.832V78.0939ZM248.208 78.0939H254.07V80.7504H248.208V78.0939ZM253.276 78.0939H256.605V80.7504H253.276V78.0939ZM255.81 78.0939H259.139V80.7504H255.81V78.0939ZM258.343 78.0939H261.673V80.7504H258.343V78.0939ZM260.877 78.0939H264.206V80.7504H260.877V78.0939ZM33.8044 91.0939H39.6664V93.7504H33.8044V91.0939ZM38.8718 91.0939H44.7338V93.7504H38.8718V91.0939ZM43.9392 91.0939H49.8012V93.7504H43.9392V91.0939ZM49.0066 91.0939H54.8686V93.7504H49.0066V91.0939ZM54.074 91.0939H59.936V93.7504H54.074V91.0939ZM64.4509 91.0939H70.3128V93.7504H64.4509V91.0939ZM69.5183 91.0939H75.3802V93.7504H69.5183V91.0939ZM74.5856 91.0939H80.4476V93.7504H74.5856V91.0939ZM79.653 91.0939H85.515V93.7504H79.653V91.0939ZM84.7204 91.0939H88.0499V93.7504H84.7204V91.0939ZM87.2541 91.0939H93.1161V93.7504H87.2541V91.0939ZM92.3215 91.0939H98.1835V93.7504H92.3215V91.0939ZM97.3889 91.0939H103.251V93.7504H97.3889V91.0939ZM102.456 91.0939H105.786V93.7504H102.456V91.0939ZM104.99 91.0939H110.852V93.7504H104.99V91.0939ZM110.057 91.0939H115.919V93.7504H110.057V91.0939ZM120.434 91.0939H126.296V93.7504H120.434V91.0939ZM125.502 91.0939H128.831V93.7504H125.502V91.0939ZM128.035 91.0939H133.897V93.7504H128.035V91.0939ZM133.103 91.0939H138.965V93.7504H133.103V91.0939ZM143.48 91.0939H149.342V93.7504H143.48V91.0939ZM148.547 91.0939H151.876V93.7504H148.547V91.0939ZM151.081 91.0939H154.41V93.7504H151.081V91.0939ZM153.614 91.0939H159.476V93.7504H153.614V91.0939ZM158.682 91.0939H164.544V93.7504H158.682V91.0939ZM169.059 91.0939H174.921V93.7504H169.059V91.0939ZM174.126 91.0939H179.988V93.7504H174.126V91.0939ZM179.193 91.0939H185.055V93.7504H179.193V91.0939ZM189.57 91.0939H192.9V93.7504H189.57V91.0939ZM192.104 91.0939H197.966V93.7504H192.104V91.0939ZM197.171 91.0939H203.033V93.7504H197.171V91.0939ZM202.239 91.0939H208.101V93.7504H202.239V91.0939ZM207.306 91.0939H210.636V93.7504H207.306V91.0939ZM209.84 91.0939H213.169V93.7504H209.84V91.0939ZM212.374 91.0939H218.236V93.7504H212.374V91.0939ZM222.75 91.0939H226.08V93.7504H222.75V91.0939ZM225.284 91.0939H228.614V93.7504H225.284V91.0939ZM227.818 91.0939H231.147V93.7504H227.818V91.0939ZM230.352 91.0939H236.214V93.7504H230.352V91.0939ZM235.419 91.0939H241.281V93.7504H235.419V91.0939ZM240.486 91.0939H243.816V93.7504H240.486V91.0939ZM243.02 91.0939H246.349V93.7504H243.02V91.0939ZM245.554 91.0939H248.883V93.7504H245.554V91.0939ZM248.087 91.0939H253.949V93.7504H248.087V91.0939ZM253.155 91.0939H256.484V93.7504H253.155V91.0939Z" fill="#2B2B2B"/>
<path d="M115.111 114.859C115.111 113.636 116.102 112.645 117.324 112.645H172.966C174.188 112.645 175.179 113.636 175.179 114.859V134.5C175.179 135.723 174.188 136.714 172.966 136.714H117.324C116.102 136.714 115.111 135.723 115.111 134.5V114.859Z" fill="black"/>
<path d="M120.246 124.017H126.108V126.674H120.246V124.017ZM125.314 124.017H128.643V126.674H125.314V124.017ZM127.848 124.017H133.71V126.674H127.848V124.017ZM132.915 124.017H136.244V126.674H132.915V124.017ZM135.449 124.017H138.778V126.674H135.449V124.017ZM143.292 124.017H149.154V126.674H143.292V124.017ZM153.669 124.017H156.998V126.674H153.669V124.017ZM156.202 124.017H159.532V126.674H156.202V124.017ZM158.736 124.017H162.066V126.674H158.736V124.017ZM161.27 124.017H167.132V126.674H161.27V124.017ZM166.337 124.017H169.667V126.674H166.337V124.017Z" fill="white"/>
</svg>
