<svg xmlns="http://www.w3.org/2000/svg" viewBox="0 0 1280 720" width="1280" height="720" role="img" aria-labelledby="t-steps">
  <title id="t-steps">Steps component preview</title>
  <style>
    @media (prefers-color-scheme: dark) {
      svg {
        --pv-paper: #151515;
        --pv-panel: #1D1D1B;
        --pv-surface: #232320;
        --pv-line: #2E2D29;
        --pv-glyph: #45443E;
        --pv-body: #3A3934;
        --pv-subject: #6E6A62;
        --pv-ink: #F5F3EE;
        --pv-on-ink: #6B6B6B;
      }
    }
  </style>
  <rect x="0" y="0" width="1280" height="720" fill="var(--pv-paper, #FFFFFF)"/>
  <g transform="translate(0 316)">
    <rect x="160" y="0" width="28" height="28" rx="14" fill="var(--pv-ink, #151515)"/>
    <rect x="196" y="13" width="204" height="2" rx="1" fill="var(--pv-line, #E4E1DA)"/>
    <rect x="160" y="48" width="160" height="26" rx="13" fill="var(--pv-subject, #A8A398)"/>
    <rect x="160" y="80" width="180" height="8" rx="4" fill="var(--pv-on-ink, #9A9A9A)"/>
    <rect x="400" y="0" width="28" height="28" rx="14" fill="var(--pv-ink, #151515)"/>
    <rect x="436" y="13" width="204" height="2" rx="1" fill="var(--pv-line, #E4E1DA)"/>
    <rect x="400" y="48" width="160" height="26" rx="13" fill="var(--pv-subject, #A8A398)"/>
    <rect x="400" y="80" width="180" height="8" rx="4" fill="var(--pv-on-ink, #9A9A9A)"/>
    <rect x="640" y="0" width="28" height="28" rx="14" fill="var(--pv-ink, #151515)"/>
    <rect x="676" y="13" width="204" height="2" rx="1" fill="var(--pv-line, #E4E1DA)"/>
    <rect x="640" y="48" width="160" height="26" rx="13" fill="var(--pv-subject, #A8A398)"/>
    <rect x="640" y="80" width="180" height="8" rx="4" fill="var(--pv-on-ink, #9A9A9A)"/>
    <rect x="880" y="0" width="28" height="28" rx="14" fill="var(--pv-ink, #151515)"/>
    <rect x="916" y="13" width="204" height="2" rx="1" fill="var(--pv-line, #E4E1DA)"/>
    <rect x="880" y="48" width="160" height="26" rx="13" fill="var(--pv-subject, #A8A398)"/>
    <rect x="880" y="80" width="240" height="8" rx="4" fill="var(--pv-on-ink, #9A9A9A)"/>
  </g>
</svg>
